<!-- icon666.com - MILLIONS vector ICONS FREE --><svg version="1.1" id="Capa_1" xmlns="http://www.w3.org/2000/svg" xmlns:xlink="http://www.w3.org/1999/xlink" x="0px" y="0px" viewBox="0 0 512 512" style="enable-background:new 0 0 512 512;" xml:space="preserve"><g><g><g><rect x="295.056" y="371" width="84" height="40" fill="#000000" style="fill: rgb(18, 158, 0);"></rect><path d="M236.731,302.777c-9.384-8.268-20.875-14.257-31.988-20.049l-0.539-0.281c-18.869-9.836-25.148-14.991-25.148-26.133 c0-7.491,7.58-14.314,15.903-14.314c8.184,0,15.097,6.411,15.097,14h40c0-23.198-15.004-43.023-36-50.651V173h-40v33.106 c-20.301,8.231-35,27.904-35,50.209c0,37.282,29.208,52.507,46.658,61.603l0.542,0.282c20.257,10.558,29.8,16.482,29.8,25.166 c0,11.381-9.859,21.365-21.097,21.365c-11.135,0-20.903-10.092-20.903-21.596h-40c0,26.377,17.413,49.507,41,58.064V432h40 v-30.753c8.522-3.046,16.377-8.029,23.032-14.744c11.587-11.691,17.968-27.01,17.968-43.137 C256.056,327.729,249.554,314.074,236.731,302.777z" fill="#000000" style="fill: rgb(18, 158, 0);"></path><rect x="295.056" y="291" width="84" height="40" fill="#000000" style="fill: rgb(18, 158, 0);"></rect><path d="M316.814,0H113.056c-33.084,0-60,26.916-60,60v392c0,33.084,26.916,60,60,60h285.889c33.084,0,60-26.916,60-60V142.857 L316.814,0z M327.944,67.901l62.889,63.211h-42.889c-11.028,0-20-8.972-20-20V67.901z M418.945,452 c-0.001,11.028-8.972,20-20.001,20H113.056c-11.028,0-20-8.972-20-20V60c0-11.028,8.972-20,20-20h174.889v71.111 c0,33.084,26.916,60,60,60h71V452z" fill="#000000" style="fill: rgb(18, 158, 0);"></path><rect x="295.056" y="211" width="84" height="40" fill="#000000" style="fill: rgb(18, 158, 0);"></rect></g></g></g></svg>